<svg width="41" height="167" viewBox="0 0 41 167" fill="none" xmlns="http://www.w3.org/2000/svg">
<g opacity="0.5">
<circle cx="2.59998" cy="2.39844" r="2" fill="#1E2D48"/>
<circle cx="20.6" cy="2.39844" r="2" fill="#1E2D48"/>
<circle cx="38.6" cy="2.39844" r="2" fill="#1E2D48"/>
<circle cx="2.59998" cy="20.3984" r="2" fill="#1E2D48"/>
<circle cx="20.6" cy="20.3984" r="2" fill="#1E2D48"/>
<circle cx="38.6" cy="20.3984" r="2" fill="#1E2D48"/>
<circle cx="2.59998" cy="38.3984" r="2" fill="#1E2D48"/>
<circle cx="20.6" cy="38.3984" r="2" fill="#1E2D48"/>
<circle cx="38.6" cy="38.3984" r="2" fill="#1E2D48"/>
<circle cx="2.59998" cy="56.3984" r="2" fill="#1E2D48"/>
<circle cx="20.6" cy="56.3984" r="2" fill="#1E2D48"/>
<circle cx="38.6" cy="56.3984" r="2" fill="#1E2D48"/>
<circle cx="2.59998" cy="74.3984" r="2" fill="#1E2D48"/>
<circle cx="20.6" cy="74.3984" r="2" fill="#1E2D48"/>
<circle cx="38.6" cy="74.3984" r="2" fill="#1E2D48"/>
<circle cx="2.59998" cy="92.3984" r="2" fill="#1E2D48"/>
<circle cx="20.6" cy="92.3984" r="2" fill="#1E2D48"/>
<circle cx="38.6" cy="92.3984" r="2" fill="#1E2D48"/>
<circle cx="2.59998" cy="110.398" r="2" fill="#1E2D48"/>
<circle cx="20.6" cy="110.398" r="2" fill="#1E2D48"/>
<circle cx="38.6" cy="110.398" r="2" fill="#1E2D48"/>
<circle cx="2.59998" cy="128.398" r="2" fill="#1E2D48"/>
<circle cx="20.6" cy="128.398" r="2" fill="#1E2D48"/>
<circle cx="38.6" cy="128.398" r="2" fill="#1E2D48"/>
<circle cx="2.59998" cy="146.398" r="2" fill="#1E2D48"/>
<circle cx="20.6" cy="146.398" r="2" fill="#1E2D48"/>
<circle cx="38.6" cy="146.398" r="2" fill="#1E2D48"/>
<circle cx="2.59998" cy="164.398" r="2" fill="#1E2D48"/>
<circle cx="20.6" cy="164.398" r="2" fill="#1E2D48"/>
<circle cx="38.6" cy="164.398" r="2" fill="#1E2D48"/>
</g>
</svg>
