<svg xmlns="http://www.w3.org/2000/svg" width="30" height="29" viewBox="0 0 30 29" fill="none">
  <path fill-rule="evenodd" clip-rule="evenodd" d="M14.9576 4.20312C12.0909 4.20312 11.732 4.21509 10.6062 4.26645C9.48248 4.31782 8.7148 4.49655 8.04352 4.7576C7.33987 5.02217 6.70166 5.43733 6.17392 5.97491C5.63719 6.50204 5.22178 7.1398 4.9566 7.84381C4.69696 8.51509 4.51753 9.28348 4.46616 10.4072C4.4155 11.5323 4.40283 11.8905 4.40283 14.7579C4.40283 17.6252 4.41479 17.9834 4.46616 19.1092C4.51753 20.233 4.69625 21.0006 4.95731 21.6719C5.22188 22.3756 5.63703 23.0138 6.17462 23.5415C6.70176 24.0782 7.33952 24.4936 8.04352 24.7588C8.7148 25.0192 9.48248 25.1979 10.6062 25.2493C11.732 25.3007 12.0909 25.3126 14.9576 25.3126C17.8242 25.3126 18.1831 25.3007 19.3089 25.2493C20.4327 25.1979 21.2004 25.0192 21.8716 24.7581C22.5753 24.4936 23.2135 24.0784 23.7412 23.5408C24.278 23.0137 24.6934 22.3759 24.9585 21.6719C25.2189 21.0006 25.3976 20.233 25.449 19.1092C25.5004 17.9834 25.5123 17.6245 25.5123 14.7579C25.5123 11.8912 25.5004 11.5323 25.449 10.4065C25.3976 9.28277 25.2189 8.51509 24.9578 7.84381C24.6929 7.1395 24.2774 6.50147 23.7405 5.97421C23.2134 5.43748 22.5756 5.02207 21.8716 4.7569C21.2004 4.49725 20.432 4.31782 19.3082 4.26645C18.1831 4.21579 17.8249 4.20312 14.9576 4.20312ZM14.9576 6.10509C17.7757 6.10509 18.1099 6.11564 19.2231 6.16631C20.2518 6.21345 20.8105 6.38444 21.1828 6.53009C21.6753 6.72078 22.0271 6.95017 22.3966 7.31889C22.766 7.6883 22.9947 8.04013 23.1854 8.53268C23.3303 8.90491 23.502 9.46361 23.5491 10.4923C23.5998 11.6055 23.6104 11.9398 23.6104 14.7579C23.6104 17.576 23.5998 17.9102 23.5491 19.0234C23.502 20.0521 23.331 20.6108 23.1854 20.9831C23.0164 21.4415 22.7469 21.8563 22.3966 22.1969C22.0561 22.5473 21.6413 22.8168 21.1828 22.9856C20.8105 23.1306 20.2518 23.3023 19.2231 23.3494C18.1099 23.4001 17.7764 23.4106 14.9576 23.4106C12.1388 23.4106 11.8052 23.4001 10.6921 23.3494C9.66332 23.3023 9.10462 23.1313 8.73239 22.9856C8.27393 22.8167 7.85916 22.5472 7.51859 22.1969C7.1683 21.8563 6.89877 21.4415 6.7298 20.9831C6.58485 20.6108 6.41316 20.0521 6.36601 19.0234C6.31535 17.9102 6.3048 17.576 6.3048 14.7579C6.3048 11.9398 6.31535 11.6055 6.36601 10.4923C6.41316 9.46361 6.58415 8.90491 6.7298 8.53268C6.92049 8.04013 7.14988 7.6883 7.51859 7.31889C7.85912 6.9685 8.2739 6.69895 8.73239 6.53009C9.10462 6.38514 9.66332 6.21345 10.6921 6.16631C11.8052 6.11564 12.1395 6.10509 14.9576 6.10509V6.10509Z" fill="#1E2D48"/>
  <path fill-rule="evenodd" clip-rule="evenodd" d="M14.9576 18.28C14.4951 18.28 14.0372 18.1889 13.6099 18.0119C13.1826 17.8349 12.7944 17.5755 12.4673 17.2485C12.1403 16.9214 11.8809 16.5332 11.7039 16.1059C11.5269 15.6786 11.4358 15.2207 11.4358 14.7582C11.4358 14.2957 11.5269 13.8378 11.7039 13.4105C11.8809 12.9832 12.1403 12.595 12.4673 12.2679C12.7944 11.9409 13.1826 11.6815 13.6099 11.5045C14.0372 11.3275 14.4951 11.2364 14.9576 11.2364C15.8916 11.2364 16.7874 11.6075 17.4479 12.2679C18.1083 12.9284 18.4794 13.8242 18.4794 14.7582C18.4794 15.6922 18.1083 16.588 17.4479 17.2485C16.7874 17.9089 15.8916 18.28 14.9576 18.28V18.28ZM14.9576 9.33306C13.5188 9.33306 12.1389 9.90464 11.1215 10.922C10.104 11.9395 9.53247 13.3194 9.53247 14.7582C9.53247 16.197 10.104 17.5769 11.1215 18.5944C12.1389 19.6118 13.5188 20.1833 14.9576 20.1833C16.3964 20.1833 17.7763 19.6118 18.7938 18.5944C19.8112 17.5769 20.3827 16.197 20.3827 14.7582C20.3827 13.3194 19.8112 11.9395 18.7938 10.922C17.7763 9.90464 16.3964 9.33306 14.9576 9.33306V9.33306ZM21.961 9.23455C21.961 9.57466 21.8259 9.90085 21.5854 10.1413C21.3449 10.3818 21.0187 10.517 20.6786 10.517C20.3385 10.517 20.0123 10.3818 19.7718 10.1413C19.5313 9.90085 19.3962 9.57466 19.3962 9.23455C19.3962 8.89444 19.5313 8.56825 19.7718 8.32776C20.0123 8.08726 20.3385 7.95215 20.6786 7.95215C21.0187 7.95215 21.3449 8.08726 21.5854 8.32776C21.8259 8.56825 21.961 8.89444 21.961 9.23455" fill="#1E2D48"/>
</svg>