<svg width="220" height="68" viewBox="0 0 220 68" fill="none" xmlns="http://www.w3.org/2000/svg">
<path d="M100.264 14.1648H97.9791V12.264H100.264V14.1648ZM105.122 17.736C105.122 18.4848 105.582 18.9264 106.427 18.9264H106.869C106.946 18.9264 107.061 19.0224 107.061 20.0016C107.061 20.9232 106.946 21 106.869 21H106.504C105.89 21 105.371 20.8272 105.122 20.5968V20.6928C105.045 23.6112 102.933 25.6464 99.8223 25.6464H99.0159C95.7135 25.6464 93.9087 23.6496 93.9087 20.2704V16.5456H95.8863V20.232C95.8863 22.4208 96.8847 23.5728 99.0351 23.5728H99.8223C101.858 23.5728 103.125 22.3824 103.125 20.4048V14.6256H105.122V17.736ZM112.859 14.6256H114.856V17.7744C114.856 19.8096 113.55 21 111.534 21H106.869C106.792 21 106.677 20.9424 106.677 20.0016C106.677 19.0416 106.792 18.9264 106.869 18.9264H111.534C112.322 18.9264 112.859 18.504 112.859 17.7168V14.6256ZM112.302 23.2464V25.1088H107.061V23.2464H112.302ZM115.618 23.5728C117.596 23.5728 118.767 22.4016 118.767 20.3856V14.6256H120.764V17.5824C120.764 18.4848 121.244 18.9264 122.223 18.9264H122.492C122.569 18.9264 122.684 19.0608 122.684 20.0016C122.684 20.9232 122.569 21 122.492 21H122.223C121.59 21 121.014 20.7888 120.764 20.4624V20.5776C120.668 23.592 118.729 25.6464 115.638 25.6464H115.081L114.908 23.5728H115.618ZM128.747 10.7856H126.462V8.904H128.747V10.7856ZM123.87 18.9264C125.771 18.9264 126.865 18.7152 128.228 17.928L130.647 16.5456C130.302 15.336 129.764 14.9712 128.555 14.9712H124.119L124.369 12.8976H128.9C131.243 12.8976 132.222 13.9344 132.971 17.1984L129.15 19.5984C127.403 20.6928 126.039 21 123.774 21H122.487C122.411 21 122.295 20.9424 122.295 20.0016C122.295 19.0416 122.411 18.9264 122.487 18.9264H123.87ZM135.448 7.6752C134.93 7.6752 134.642 7.9056 134.488 8.2896L134.008 9.48L132.664 8.904L133.26 7.3104C133.663 6.2736 134.296 5.928 135.448 5.928H140.268V7.6752H135.448ZM136.082 10.2864H138.06V21H136.082V10.2864Z" fill="#1E2D48"/>
<path d="M2.19029 51.4288C2.19029 50.1616 2.72789 48.952 4.05269 47.512L3.22709 46.6672L5.56949 44.3056C9.62069 47.9536 10.3503 49.4128 10.3503 51.2368C10.3503 53.5216 8.64149 55.192 6.14549 55.192C3.70709 55.192 2.19029 53.6752 2.19029 51.4288ZM7.20149 51.1024C7.20149 50.584 6.97109 50.1616 6.27989 49.5856C5.60789 50.1616 5.33909 50.6032 5.33909 51.1216C5.33909 51.5824 5.68469 51.8896 6.24149 51.8896C6.81749 51.8896 7.20149 51.5824 7.20149 51.1024ZM16.2924 51.5632C16.6188 51.5632 16.8876 51.4096 16.8876 51.1408C16.8876 50.8912 16.734 50.5456 15.006 46.072L18.078 44.6128L20.3628 50.9104C20.5164 51.3328 20.766 51.5632 21.1308 51.5632H21.726C21.8028 51.5632 21.918 51.7168 21.918 53.2912C21.918 54.9808 21.8028 55 21.726 55H20.862C20.1324 55 19.2876 54.8464 18.75 54.2128C18.1356 54.8464 17.5212 55 16.83 55H12.1644L11.9148 51.5632H16.2924ZM30.9793 40.7152V43.288H28.2721V40.7152H30.9793ZM26.7937 46.5712V43.9792H32.4577V46.5712H26.7937ZM32.5153 47.992H35.7217V51.1408C35.7217 53.5216 34.2433 55 31.8625 55C30.8449 55 30.0961 54.7504 29.6161 54.2128C29.1361 54.7504 28.5217 55 27.4081 55C26.3521 55 25.6033 54.7504 25.1425 54.2128C24.6625 54.7504 24.0289 55 22.9153 55H21.7249C21.6481 55 21.5329 54.904 21.5329 53.2912C21.5329 51.64 21.6481 51.5632 21.7249 51.5632H22.9153C23.3953 51.5632 23.5873 51.352 23.5873 51.0064V47.992H26.7937V51.0064C26.7937 51.3328 26.9665 51.5632 27.4273 51.5632C27.8881 51.5632 28.0801 51.3328 28.0801 51.0064V47.992H31.2865V50.9872C31.2865 51.3328 31.4977 51.5632 31.9009 51.5632C32.2849 51.5632 32.5153 51.3328 32.5153 50.9872V47.992ZM40.6791 56.0368C42.0999 56.0368 42.8679 55.384 42.8679 54.1168V47.992H46.1511V50.9296C46.1511 51.3904 46.3239 51.5632 46.8039 51.5632H47.4375C47.5143 51.5632 47.6295 51.7168 47.6295 53.2912C47.6295 54.904 47.5143 55 47.4375 55H47.0727C46.7079 55 46.3623 54.9424 46.1127 54.7888C45.8439 57.4192 43.9815 59.4736 40.8903 59.4736H40.0455L39.7767 56.0368H40.6791ZM56.6856 40.7152V43.288H53.9784V40.7152H56.6856ZM52.5 46.5712V43.9792H58.164V46.5712H52.5ZM62.7912 51.5632C62.868 51.5632 62.9832 51.64 62.9832 53.2912C62.9832 54.904 62.868 55 62.7912 55H62.1C61.0632 55 60.2184 54.7888 59.8344 54.2512C59.3544 54.7888 58.5864 55 57.5688 55C56.5512 55 55.8024 54.7504 55.3224 54.2128C54.8424 54.7504 54.228 55 53.1144 55C52.0584 55 51.3096 54.7504 50.8488 54.2128C50.3688 54.7504 49.7352 55 48.6216 55H47.4312C47.3544 55 47.2392 54.904 47.2392 53.2912C47.2392 51.64 47.3544 51.5632 47.4312 51.5632H48.6216C49.1016 51.5632 49.2936 51.352 49.2936 51.0064V47.992H52.5V51.0064C52.5 51.3328 52.6728 51.5632 53.1336 51.5632C53.5944 51.5632 53.7864 51.3328 53.7864 51.0064V47.992H56.9928V50.9872C56.9928 51.3328 57.204 51.5632 57.6072 51.5632C58.0488 51.5632 58.2216 51.3328 58.2216 51.0064V47.992H61.428V50.9296C61.428 51.3904 61.6008 51.5632 62.0232 51.5632H62.7912ZM63.997 46.5712V43.9792H69.661V46.5712H63.997ZM71.0242 51.5632C71.101 51.5632 71.2162 51.64 71.2162 53.2912C71.2162 54.904 71.101 55 71.0242 55H70.3714C69.4498 55 68.701 54.7888 68.221 54.2512C67.741 54.7888 67.1266 55 66.0706 55H62.7874C62.7106 55 62.5954 54.904 62.5954 53.2912C62.5954 51.64 62.7106 51.5632 62.7874 51.5632H66.0706C66.4546 51.5632 66.6658 51.3904 66.6658 51.064V47.992H69.9298V51.0256C69.9298 51.352 70.1026 51.5632 70.525 51.5632H71.0242ZM76.6059 46.5712H73.2843V43.9792H76.6059V46.5712ZM72.8427 51.5632C73.2267 51.5632 73.4379 51.3904 73.4379 51.064V47.992H76.7019V51.0256C76.7019 51.352 76.8939 51.5632 77.3163 51.5632H77.7963C77.8731 51.5632 77.9883 51.64 77.9883 53.2912C77.9883 54.904 77.8731 55 77.7963 55H77.1435C76.2219 55 75.4731 54.7888 75.0123 54.2512C74.5323 54.7888 73.8987 55 72.8427 55H71.0187C70.9419 55 70.8267 54.904 70.8267 53.2912C70.8267 51.64 70.9419 51.5632 71.0187 51.5632H72.8427ZM78.4018 51.5632C78.7666 51.5632 78.9778 51.4096 78.9778 51.0064V50.7184C78.9778 48.2224 80.5138 46.6096 83.029 46.6096C85.525 46.6096 86.9266 48.1264 86.9266 50.7952C86.9266 53.4256 85.429 55 82.8946 55C81.8194 55 81.0322 54.6928 80.6482 54.2512C80.1682 54.7888 79.4194 55 78.4018 55H77.7874C77.7106 55 77.5954 54.904 77.5954 53.2912C77.5954 51.64 77.7106 51.5632 77.7874 51.5632H78.4018ZM83.797 50.7952C83.797 50.1616 83.4898 49.816 82.933 49.816C82.3378 49.816 82.0498 50.1616 82.0498 50.7952C82.0498 51.3712 82.3378 51.6976 82.933 51.6976C83.5282 51.6976 83.797 51.3904 83.797 50.7952ZM101.389 51.5632C101.793 51.5632 101.985 51.3904 101.985 51.064V47.992H105.268V51.0256C105.268 51.352 105.441 51.5632 105.863 51.5632H106.362C106.439 51.5632 106.554 51.64 106.554 53.2912C106.554 54.904 106.439 55 106.362 55H105.69C104.788 55 104.02 54.7888 103.559 54.2512C103.079 54.7888 102.445 55 101.389 55H95.8022C93.4213 55 92.0965 53.6752 92.0965 51.256V47.992H95.3798V50.8144C95.3798 51.2944 95.5526 51.5632 96.0902 51.5632H101.389ZM100.353 59.0128H97.0118V56.4208H100.353V59.0128ZM107.111 51.5632C107.438 51.5632 107.706 51.352 107.706 50.9872V42.6928H110.97V51.2176C110.97 53.6176 109.569 55 107.246 55H106.362C106.286 55 106.17 54.9232 106.17 53.2912C106.17 51.64 106.286 51.5632 106.362 51.5632H107.111ZM117.555 51.5632C117.651 51.5632 117.747 51.64 117.747 53.2912C117.747 54.904 117.651 55 117.555 55H116.671C114.271 55 113.081 53.5984 113.081 51.1792V42.6928H116.345V50.9104C116.345 51.3712 116.518 51.5632 116.921 51.5632H117.555ZM118.747 51.5632V42.6928H122.03V47.6656C122.779 46.8592 123.719 46.4944 124.622 46.4944C126.887 46.4944 128.423 48.2032 128.423 50.6608C128.423 50.968 128.404 51.2176 128.347 51.4672C128.519 51.544 128.769 51.5632 129.134 51.5632H129.614C129.691 51.5632 129.806 51.64 129.806 53.2912C129.806 54.904 129.691 55 129.614 55H129.134C128.116 55 127.348 54.808 126.695 54.2512C126.004 54.712 125.121 55 124.065 55H117.556C117.479 55 117.364 54.904 117.364 53.2912C117.364 51.64 117.479 51.5632 117.556 51.5632H118.747ZM124.142 51.6208C124.814 51.6208 125.217 51.2368 125.217 50.6608C125.217 50.1616 124.891 49.7584 124.353 49.7584C123.758 49.7584 122.951 50.4304 121.915 51.6208H124.142ZM130.227 51.5632C130.592 51.5632 130.803 51.4096 130.803 51.0064V50.7184C130.803 48.2224 132.339 46.6096 134.854 46.6096C137.35 46.6096 138.752 48.1264 138.752 50.7952C138.752 53.4256 137.254 55 134.72 55C133.644 55 132.857 54.6928 132.473 54.2512C131.993 54.7888 131.244 55 130.227 55H129.612C129.536 55 129.42 54.904 129.42 53.2912C129.42 51.64 129.536 51.5632 129.612 51.5632H130.227ZM135.622 50.7952C135.622 50.1616 135.315 49.816 134.758 49.816C134.163 49.816 133.875 50.1616 133.875 50.7952C133.875 51.3712 134.163 51.6976 134.758 51.6976C135.353 51.6976 135.622 51.3904 135.622 50.7952Z" fill="#D1AF89"/>
<rect opacity="0.26" x="154.301" y="1.6001" width="64.8" height="64.8" rx="16" fill="url(#paint0_linear_3941_4167)"/>
<path opacity="0.4" d="M201.473 26.784C200.81 26.3661 199.995 26.3291 199.3 26.6827L196.953 27.8674C196.085 28.3046 195.547 29.1887 195.547 30.1725V39.4089C195.547 40.3926 196.085 41.2751 196.953 41.7156L199.298 42.8986C199.616 43.0626 199.957 43.1414 200.297 43.1414C200.706 43.1414 201.111 43.0256 201.473 42.799C202.137 42.3827 202.533 41.6609 202.533 40.87V28.7145C202.533 27.9237 202.137 27.2019 201.473 26.784Z" fill="#1E2D48"/>
<path d="M186.549 46.6666H177.379C173.544 46.6666 170.866 44.0224 170.866 40.2368V29.3464C170.866 25.5593 173.544 22.9166 177.379 22.9166H186.549C190.384 22.9166 193.062 25.5593 193.062 29.3464V40.2368C193.062 44.0224 190.384 46.6666 186.549 46.6666Z" fill="#1E2D48"/>
<defs>
<linearGradient id="paint0_linear_3941_4167" x1="219.101" y1="1.6001" x2="154.301" y2="66.4001" gradientUnits="userSpaceOnUse">
<stop stop-color="#1E2D48"/>
<stop offset="1" stop-color="white" stop-opacity="0"/>
</linearGradient>
</defs>
</svg>
