<svg width="230" height="68" viewBox="0 0 230 68" fill="none" xmlns="http://www.w3.org/2000/svg">
<path d="M111.164 14.1648H108.879V12.264H111.164V14.1648ZM116.021 17.736C116.021 18.4848 116.482 18.9264 117.327 18.9264H117.768C117.845 18.9264 117.96 19.0224 117.96 20.0016C117.96 20.9232 117.845 21 117.768 21H117.404C116.789 21 116.271 20.8272 116.021 20.5968V20.6928C115.944 23.6112 113.832 25.6464 110.722 25.6464H109.916C106.613 25.6464 104.808 23.6496 104.808 20.2704V16.5456H106.786V20.232C106.786 22.4208 107.784 23.5728 109.935 23.5728H110.722C112.757 23.5728 114.024 22.3824 114.024 20.4048V14.6256H116.021V17.736ZM123.759 14.6256H125.756V17.7744C125.756 19.8096 124.45 21 122.434 21H117.768C117.692 21 117.576 20.9424 117.576 20.0016C117.576 19.0416 117.692 18.9264 117.768 18.9264H122.434C123.221 18.9264 123.759 18.504 123.759 17.7168V14.6256ZM123.202 23.2464V25.1088H117.96V23.2464H123.202ZM126.518 23.5728C128.496 23.5728 129.667 22.4016 129.667 20.3856V14.6256H131.664V17.5824C131.664 18.4848 132.144 18.9264 133.123 18.9264H133.392C133.468 18.9264 133.584 19.0608 133.584 20.0016C133.584 20.9232 133.468 21 133.392 21H133.123C132.489 21 131.913 20.7888 131.664 20.4624V20.5776C131.568 23.592 129.628 25.6464 126.537 25.6464H125.98L125.808 23.5728H126.518ZM139.646 10.7856H137.362V8.904H139.646V10.7856ZM134.77 18.9264C136.67 18.9264 137.765 18.7152 139.128 17.928L141.547 16.5456C141.202 15.336 140.664 14.9712 139.454 14.9712H135.019L135.269 12.8976H139.8C142.142 12.8976 143.122 13.9344 143.87 17.1984L140.05 19.5984C138.302 20.6928 136.939 21 134.674 21H133.387C133.31 21 133.195 20.9424 133.195 20.0016C133.195 19.0416 133.31 18.9264 133.387 18.9264H134.77ZM146.348 7.6752C145.83 7.6752 145.542 7.9056 145.388 8.2896L144.908 9.48L143.564 8.904L144.159 7.3104C144.562 6.2736 145.196 5.928 146.348 5.928H151.167V7.6752H146.348ZM146.982 10.2864H148.959V21H146.982V10.2864Z" fill="white"/>
<path d="M6.93545 51.5632C7.03145 51.5632 7.12745 51.64 7.12745 53.2912C7.12745 54.904 7.03145 55 6.93545 55H6.05225C3.65225 55 2.46185 53.5984 2.46185 51.1792V42.6928H5.72585V50.9104C5.72585 51.3712 5.89865 51.5632 6.30185 51.5632H6.93545ZM19.2443 48.8176C20.1659 49.7968 20.4539 50.6992 20.4539 51.5824C20.4539 53.5216 19.0139 55 16.6523 55H14.3099C13.2155 55 12.4859 54.9808 11.8715 54.7312C11.1035 54.9808 10.0859 55 9.2027 55H6.9371C6.8603 55 6.7451 54.904 6.7451 53.2912C6.7451 51.64 6.8603 51.5632 6.9371 51.5632H8.4347C8.2427 51.2944 8.1467 50.7184 8.1467 50.2384C8.1467 48.1648 9.8747 46.3984 12.1403 46.3984C12.5243 46.3984 12.8891 46.456 13.2347 46.5904L15.2699 44.5552L19.2443 48.8176ZM16.4027 51.5632C16.9019 51.5632 17.0939 51.3712 17.0939 51.1216C17.0939 50.9296 16.9979 50.7376 16.6907 50.4112L15.6923 49.4128C15.7307 49.6048 15.7499 49.7776 15.7499 49.9696C15.7499 50.6032 15.5579 51.1984 15.3275 51.5632H16.4027ZM11.9099 51.6208C12.5243 51.2944 12.8315 50.872 12.8315 50.3152C12.8315 49.8352 12.4859 49.4704 11.9483 49.4704C11.3915 49.4704 11.0651 49.8352 11.0651 50.3152C11.0651 50.872 11.3339 51.2944 11.9099 51.6208ZM41.705 50.9872C41.705 51.3328 41.897 51.5632 42.3002 51.5632C42.761 51.5632 42.9338 51.3328 42.9338 51.0064V47.992H46.1402V50.9296C46.1402 51.3904 46.313 51.5632 46.7354 51.5632H47.5034C47.5802 51.5632 47.6954 51.64 47.6954 53.2912C47.6954 54.904 47.5802 55 47.5034 55H46.8122C45.7562 55 44.9306 54.7888 44.5466 54.2512C44.0666 54.7888 43.2986 55 42.281 55C41.2634 55 40.4954 54.7504 40.0346 54.2128C39.6314 54.7504 38.9978 55 38.0954 55C37.673 55 37.3466 54.9232 37.1354 54.808C36.8282 57.6688 34.793 59.4736 31.7594 59.4736H30.9338C27.5738 59.4736 25.5962 57.3808 25.5962 53.944V49.912H28.8794V53.8672C28.8794 55.3264 29.5322 56.0368 30.9914 56.0368H31.7594C33.1994 56.0368 34.0058 55.3264 34.0058 54.1168V47.992H37.2122V51.0064C37.2122 51.3328 37.385 51.5632 37.8458 51.5632C38.2874 51.5632 38.4986 51.3328 38.4986 51.0064V47.992H41.705V50.9872ZM53.0993 46.5712H49.7777V43.9792H53.0993V46.5712ZM49.3361 51.5632C49.7201 51.5632 49.9313 51.3904 49.9313 51.064V47.992H53.1953V51.0256C53.1953 51.352 53.3873 51.5632 53.8097 51.5632H54.2897C54.3665 51.5632 54.4817 51.64 54.4817 53.2912C54.4817 54.904 54.3665 55 54.2897 55H53.6369C52.7153 55 51.9665 54.7888 51.5057 54.2512C51.0257 54.7888 50.3921 55 49.3361 55H47.5121C47.4353 55 47.3201 54.904 47.3201 53.2912C47.3201 51.64 47.4353 51.5632 47.5121 51.5632H49.3361ZM55.4713 51.5632C55.9513 51.5632 56.1433 51.352 56.1433 51.0064V47.992H59.3497V51.0064C59.3497 51.3328 59.5225 51.5632 59.9833 51.5632C60.4441 51.5632 60.6361 51.3328 60.6361 51.0064V47.992H63.8425V50.9872C63.8425 51.3328 64.0537 51.5632 64.4569 51.5632C64.8985 51.5632 65.0713 51.3328 65.0713 51.0064V47.992H68.2777V50.9296C68.2777 51.3904 68.4505 51.5632 68.8729 51.5632H69.6409C69.7177 51.5632 69.8329 51.64 69.8329 53.2912C69.8329 54.904 69.7177 55 69.6409 55H68.9497C67.9129 55 67.0681 54.7888 66.6841 54.2512C66.2041 54.7888 65.4361 55 64.4185 55C63.4009 55 62.6521 54.7504 62.1721 54.2128C61.6921 54.7504 61.0777 55 59.9641 55C58.9081 55 58.1593 54.7504 57.6985 54.2128C57.2185 54.7504 56.5849 55 55.4713 55H54.2809C54.2041 55 54.0889 54.904 54.0889 53.2912C54.0889 51.64 54.2041 51.5632 54.2809 51.5632H55.4713ZM71.9411 47.992H75.1475V51.2176C75.1475 53.5408 73.6691 55 71.3459 55H69.6371C69.5603 55 69.4451 54.904 69.4451 53.2912C69.4451 51.64 69.5603 51.5632 69.6371 51.5632H71.3459C71.6915 51.5632 71.9411 51.352 71.9411 51.0448V47.992ZM73.9955 56.4208V59.0128H68.3507V56.4208H73.9955ZM77.1431 55V42.6928H80.4071V51.5632H81.5015C81.8471 51.5632 82.0967 51.352 82.0967 50.9872V42.6928H85.3799V51.2176C85.3799 53.6176 83.9591 55 81.6359 55H77.1431ZM98.7808 54.0208C98.7808 57.4576 96.8608 59.4736 93.7312 59.4736H90.928L90.6592 56.0944H94.2304C95.1136 56.0944 95.5744 55.6528 95.5744 55H94.8256C91.9072 55 90.7936 53.848 90.7936 51.1024C90.7936 48.6064 92.3872 46.8016 94.768 46.8016C97.2832 46.8016 98.7808 48.4336 98.7808 51.2752V54.0208ZM93.9232 50.9296C93.9232 51.5248 94.1728 51.7744 94.864 51.7744H95.6512V51.064C95.6512 50.3344 95.344 49.9504 94.7488 49.9504C94.192 49.9504 93.9232 50.3728 93.9232 50.9296ZM113.572 51.5632C113.994 51.5632 114.224 51.3904 114.224 51.1408C114.224 50.9104 114.09 50.6992 113.84 50.4496L110.02 46.7248V44.2672L117.719 41.4064L118.525 44.6512L114.34 46.2256L116.336 48.2224C117.604 49.4896 117.93 50.392 117.93 51.5824C117.93 53.8672 116.336 55 114.071 55H107.658C105.277 55 103.952 53.6752 103.952 51.256V47.992H107.236V50.8144C107.236 51.2944 107.408 51.5632 107.946 51.5632H113.572ZM123.763 54.0592C123.763 57.2272 121.747 59.4736 118.502 59.4736H116.486L116.218 56.0368H118.291C119.712 56.0368 120.48 55.384 120.48 54.1168V47.992H123.763V54.0592ZM125.743 55V42.6928H129.007V55H125.743ZM135.08 51.5632C135.406 51.5632 135.675 51.4096 135.675 51.1408C135.675 50.8912 135.521 50.5456 133.793 46.072L136.865 44.6128L139.15 50.9104C139.304 51.3328 139.553 51.5632 139.918 51.5632H140.513C140.59 51.5632 140.705 51.7168 140.705 53.2912C140.705 54.9808 140.59 55 140.513 55H139.649C138.92 55 138.075 54.8464 137.537 54.2128C136.923 54.8464 136.308 55 135.617 55H130.952L130.702 51.5632H135.08ZM141.127 51.5632C141.491 51.5632 141.703 51.4096 141.703 51.0064V50.7184C141.703 48.2224 143.239 46.6096 145.754 46.6096C148.25 46.6096 149.651 48.1264 149.651 50.7952C149.651 53.4256 148.154 55 145.619 55C144.544 55 143.757 54.6928 143.373 54.2512C142.893 54.7888 142.144 55 141.127 55H140.512C140.435 55 140.32 54.904 140.32 53.2912C140.32 51.64 140.435 51.5632 140.512 51.5632H141.127ZM146.522 50.7952C146.522 50.1616 146.215 49.816 145.658 49.816C145.063 49.816 144.775 50.1616 144.775 50.7952C144.775 51.3712 145.063 51.6976 145.658 51.6976C146.253 51.6976 146.522 51.3904 146.522 50.7952Z" fill="#D1AF89"/>
<rect opacity="0.26" x="165.2" y="1.6001" width="64.8" height="64.8" rx="16" fill="url(#paint0_linear_3926_3662)"/>
<path opacity="0.5" d="M182.167 27.4668V33.8001C182.167 38.2778 182.167 40.5182 183.558 41.9084C184.312 42.6636 185.316 43.0088 186.788 43.1671C186.907 43.0088 187.018 42.8837 187.097 42.7966C187.281 42.594 187.514 42.3644 187.74 42.1411L190.104 39.8105L190.976 38.927C191.261 37.2704 192.122 35.7677 193.407 34.6845C194.692 33.6013 196.319 33.0072 198 33.0072C199.681 33.0072 201.308 33.6013 202.593 34.6845C203.878 35.7677 204.739 37.2704 205.024 38.927L205.896 39.8105L208.26 42.1411C208.486 42.3644 208.719 42.594 208.903 42.7966C208.982 42.8837 209.093 43.0088 209.21 43.1671C210.684 43.0088 211.688 42.6636 212.442 41.9084C213.833 40.5182 213.833 38.2778 213.833 33.8001V27.4668C213.833 22.9891 213.833 20.7487 212.442 19.3585C211.051 17.9668 208.811 17.9668 204.333 17.9668H191.667C187.189 17.9668 184.949 17.9668 183.558 19.3585C182.167 20.7487 182.167 22.9891 182.167 27.4668Z" fill="#D1AF89"/>
<path d="M190.083 28.6542C189.768 28.6542 189.466 28.7793 189.244 29.002C189.021 29.2247 188.896 29.5268 188.896 29.8417C188.896 30.1567 189.021 30.4587 189.244 30.6814C189.466 30.9041 189.768 31.0292 190.083 31.0292H205.917C206.232 31.0292 206.534 30.9041 206.756 30.6814C206.979 30.4587 207.104 30.1567 207.104 29.8417C207.104 29.5268 206.979 29.2247 206.756 29.002C206.534 28.7793 206.232 28.6542 205.917 28.6542H190.083ZM192.063 24.3C192.063 23.9851 192.188 23.6831 192.41 23.4604C192.633 23.2377 192.935 23.1125 193.25 23.1125H202.75C203.065 23.1125 203.367 23.2377 203.59 23.4604C203.812 23.6831 203.938 23.9851 203.938 24.3C203.938 24.615 203.812 24.917 203.59 25.1397C203.367 25.3624 203.065 25.4875 202.75 25.4875H193.25C192.935 25.4875 192.633 25.3624 192.41 25.1397C192.188 24.917 192.063 24.615 192.063 24.3ZM193.252 40.002L193.25 40.1334C193.252 41.3875 193.75 42.5898 194.636 43.478C195.521 44.3663 196.722 44.8684 197.976 44.8748C199.23 44.8813 200.435 44.3915 201.33 43.5124C202.224 42.6332 202.735 41.4361 202.75 40.1821C202.765 38.9281 202.283 37.719 201.41 36.8186C200.538 35.9182 199.344 35.3995 198.09 35.3757C196.836 35.352 195.624 35.825 194.717 36.6917C193.811 37.5583 193.284 38.7483 193.252 40.002ZM191.154 42.1125L189.444 43.7988C188.929 44.3055 188.673 44.5588 188.584 44.771C188.483 44.9987 188.47 45.2555 188.545 45.4927C188.621 45.73 188.781 45.9311 188.996 46.0582C189.189 46.1706 189.537 46.2055 190.235 46.2767C190.628 46.3163 190.826 46.3353 190.991 46.3955C191.171 46.4607 191.336 46.5645 191.472 46.6995C191.609 46.8346 191.715 46.9977 191.782 47.1776C191.844 47.3407 191.865 47.5339 191.904 47.9218C191.975 48.6105 192.012 48.9541 192.126 49.1457C192.259 49.3581 192.464 49.5158 192.703 49.5901C192.942 49.6645 193.201 49.6506 193.431 49.551C193.647 49.4624 193.906 49.2106 194.417 48.704L196.127 47.0098C194.948 46.6873 193.872 46.0674 193.001 45.2097C192.13 44.3519 191.494 43.2865 191.154 42.1125ZM199.872 47.0098L201.582 48.704C202.096 49.2106 202.353 49.464 202.57 49.551C203.065 49.7505 203.615 49.5795 203.874 49.1457C203.988 48.9557 204.025 48.6105 204.096 47.9234C204.135 47.5339 204.156 47.3407 204.218 47.1792C204.285 46.9991 204.391 46.8357 204.527 46.7003C204.664 46.565 204.829 46.461 205.009 46.3955C205.176 46.3353 205.372 46.3163 205.765 46.2767C206.461 46.2055 206.811 46.1706 207.004 46.0582C207.219 45.9311 207.379 45.73 207.455 45.4927C207.531 45.2555 207.517 44.9987 207.416 44.771C207.327 44.5572 207.071 44.3039 206.558 43.7988L204.848 42.111C204.507 43.2853 203.871 44.3525 203 45.2103C202.128 46.0681 201.051 46.6877 199.872 47.0098Z" fill="#D1AF89"/>
<defs>
<linearGradient id="paint0_linear_3926_3662" x1="230" y1="1.6001" x2="165.2" y2="66.4001" gradientUnits="userSpaceOnUse">
<stop stop-color="#D1AF89"/>
<stop offset="1" stop-color="white" stop-opacity="0"/>
</linearGradient>
</defs>
</svg>
