<svg width="756" height="588" viewBox="0 0 756 588" fill="none" xmlns="http://www.w3.org/2000/svg">
<g opacity="0.2">
<path d="M14.0098 -329.252C205.375 -427.007 465.161 -347.702 563.611 -158.194C662.06 31.3138 606.475 342.367 389.156 390.337C171.836 438.308 -45.5423 400.21 -160.445 219.28C-275.348 38.3497 -177.355 -231.497 14.0098 -329.252Z" stroke="#D1AF89" stroke-width="0.955839" stroke-linecap="round"/>
<path d="M19.1176 -303.737C192.549 -392.56 428.181 -320.451 517.484 -148.625C606.787 23.2007 553.292 299.403 359.292 348.772C165.292 398.142 -36.7324 358.689 -139.075 193.661C-241.417 28.6329 -154.314 -214.914 19.1176 -303.737Z" stroke="#D1AF89" stroke-width="0.955839" stroke-linecap="round"/>
<path d="M30.415 -274.208C185.994 -353.945 397.418 -289.2 477.548 -135.043C557.678 19.1145 508.914 265.467 335.618 311.22C162.323 356.973 -20.1531 320.357 -111.515 172.055C-202.876 23.7526 -125.164 -194.472 30.415 -274.208Z" stroke="#D1AF89" stroke-width="0.955839" stroke-linecap="round"/>
<path d="M44.187 -243.076C181.946 -313.662 369.14 -256.351 440.086 -119.856C511.032 16.6386 468.092 235.212 314.419 275.273C160.746 315.333 -0.445025 283.288 -81.4797 152.053C-162.514 20.8178 -93.5722 -172.49 44.187 -243.076Z" stroke="#D1AF89" stroke-width="0.955839" stroke-linecap="round"/>
<path d="M59.1972 -211.141C179.154 -272.544 342.106 -222.702 403.862 -103.867C465.619 14.9679 429.068 206.832 294.458 240.127C159.848 273.423 20.839 246.846 -50.2068 132.854C-121.253 18.8615 -60.7597 -149.738 59.1972 -211.141Z" stroke="#D1AF89" stroke-width="0.955839" stroke-linecap="round"/>
<path d="M74.9144 -178.747C177.079 -230.947 315.782 -188.597 368.345 -87.4194C420.909 13.7579 391.081 179.543 275.204 205.441C159.327 231.339 43.0295 210.759 -18.2268 114.113C-79.4831 17.4681 -27.2503 -126.547 74.9144 -178.747Z" stroke="#D1AF89" stroke-width="0.955839" stroke-linecap="round"/>
<path d="M91.0738 -146.067C175.453 -189.051 289.903 -154.206 333.271 -70.6854C376.639 12.8351 353.749 152.948 256.392 171.04C159.036 189.133 65.7903 174.891 14.1953 95.6591C-37.3998 16.4276 6.6946 -103.082 91.0738 -146.067Z" stroke="#D1AF89" stroke-width="0.955839" stroke-linecap="round"/>
<path d="M107.529 -113.194C174.127 -146.955 264.32 -119.623 298.492 -53.7585C332.663 12.1061 316.857 126.826 237.876 136.833C158.895 146.841 88.9349 139.17 46.913 77.3978C4.89105 15.626 40.9307 -79.4329 107.529 -113.194Z" stroke="#D1AF89" stroke-width="0.955839" stroke-linecap="round"/>
<path d="M124.189 -80.1891C173.009 -104.72 238.944 -84.909 263.918 -36.6999C288.892 11.5092 280.276 101.036 219.565 102.757C158.854 104.479 112.348 103.547 79.8361 59.2681C47.324 14.9891 75.369 -55.6584 124.189 -80.1891Z" stroke="#D1AF89" stroke-width="0.955839" stroke-linecap="round"/>
<path d="M140.999 -47.087C172.044 -62.383 213.719 -50.0979 229.494 -19.5439C245.269 11.0102 243.923 75.4936 201.404 68.7791C158.885 62.0645 135.958 67.9976 112.909 41.2359C89.8593 14.4742 109.955 -31.791 140.999 -47.087Z" stroke="#D1AF89" stroke-width="0.955839" stroke-linecap="round"/>
</g>
</svg>
