<svg width="237" height="237" viewBox="0 0 237 237" fill="none" xmlns="http://www.w3.org/2000/svg">
<g filter="url(#filter0_d_3955_4928)">
<rect x="94" y="69" width="77" height="77" rx="18" fill="#D1AF89"/>
</g>
<path opacity="0.4" d="M137.902 88.2083C145.612 89.0645 151.704 95.1478 152.569 102.858" stroke="white" stroke-width="2.38" stroke-linecap="round" stroke-linejoin="round"/>
<path opacity="0.4" d="M137.902 95.5896C141.592 96.3063 144.475 99.1917 145.194 102.881" stroke="white" stroke-width="2.38" stroke-linecap="round" stroke-linejoin="round"/>
<path fill-rule="evenodd" clip-rule="evenodd" d="M130.982 108.984C139.293 117.292 141.178 107.681 146.469 112.968C151.57 118.068 154.505 119.09 148.039 125.551C147.23 126.202 142.086 134.03 124.009 115.958C105.93 97.8833 113.753 92.7342 114.404 91.9248C120.883 85.4454 121.889 88.3945 126.99 93.4944C132.279 98.7843 122.672 100.676 130.982 108.984Z" stroke="white" stroke-width="2.38" stroke-linecap="round" stroke-linejoin="round"/>
<defs>
<filter id="filter0_d_3955_4928" x="0" y="0" width="237" height="237" filterUnits="userSpaceOnUse" color-interpolation-filters="sRGB">
<feFlood flood-opacity="0" result="BackgroundImageFix"/>
<feColorMatrix in="SourceAlpha" type="matrix" values="0 0 0 0 0 0 0 0 0 0 0 0 0 0 0 0 0 0 127 0" result="hardAlpha"/>
<feOffset dx="-14" dy="11"/>
<feGaussianBlur stdDeviation="40"/>
<feComposite in2="hardAlpha" operator="out"/>
<feColorMatrix type="matrix" values="0 0 0 0 0.819608 0 0 0 0 0.686275 0 0 0 0 0.537255 0 0 0 0.7 0"/>
<feBlend mode="normal" in2="BackgroundImageFix" result="effect1_dropShadow_3955_4928"/>
<feBlend mode="normal" in="SourceGraphic" in2="effect1_dropShadow_3955_4928" result="shape"/>
</filter>
</defs>
</svg>
