<svg xmlns="http://www.w3.org/2000/svg" width="29" height="29" viewBox="0 0 29 29" fill="none">
  <path fill-rule="evenodd" clip-rule="evenodd" d="M25.8004 14.6425C25.8004 21.1195 20.5499 26.37 14.073 26.37C7.59604 26.37 2.34546 21.1195 2.34546 14.6425C2.34546 8.16562 7.59604 2.91504 14.073 2.91504C20.5499 2.91504 25.8004 8.16562 25.8004 14.6425ZM14.4932 11.5728C13.3525 12.0473 11.0728 13.0292 7.65398 14.5188C7.09882 14.7395 6.808 14.9555 6.78153 15.1667C6.73678 15.5236 7.18373 15.6641 7.79234 15.8555C7.87513 15.8815 7.96091 15.9085 8.04885 15.9371C8.64763 16.1317 9.45311 16.3594 9.87184 16.3685C10.2517 16.3767 10.6756 16.2201 11.1436 15.8987C14.3379 13.7425 15.9868 12.6526 16.0904 12.6291C16.1634 12.6125 16.2646 12.5917 16.3332 12.6526C16.4017 12.7136 16.395 12.829 16.3877 12.86C16.3435 13.0487 14.5891 14.6798 13.6812 15.5239C13.3981 15.787 13.1974 15.9736 13.1563 16.0163C13.0644 16.1118 12.9707 16.2021 12.8806 16.2889C12.3243 16.8252 11.9072 17.2273 12.9037 17.884C13.3826 18.1996 13.7658 18.4606 14.1481 18.7209C14.5656 19.0053 14.9821 19.2889 15.5209 19.6421C15.6582 19.732 15.7893 19.8255 15.917 19.9165C16.4029 20.2629 16.8394 20.5741 17.3787 20.5245C17.6921 20.4957 18.0158 20.201 18.1802 19.3222C18.5687 17.2452 19.3323 12.7451 19.5088 10.8907C19.5243 10.7282 19.5049 10.5203 19.4892 10.429C19.4736 10.3378 19.441 10.2077 19.3223 10.1114C19.1818 9.99742 18.9649 9.97338 18.8679 9.97508C18.4268 9.98285 17.75 10.2182 14.4932 11.5728Z" fill="#1E2D48"/>
</svg>