<svg xmlns="http://www.w3.org/2000/svg" width="30" height="29" viewBox="0 0 30 29" fill="none">
  <path d="M24.2839 9.85789C24.2981 10.0647 24.2981 10.2714 24.2981 10.4801C24.2981 16.8386 19.4575 24.172 10.6063 24.172V24.1681C7.99161 24.172 5.43124 23.423 3.2301 22.0108C3.6103 22.0566 3.9924 22.0794 4.37546 22.0804C6.54229 22.0823 8.64719 21.3553 10.3519 20.0165C8.29272 19.9774 6.48703 18.6348 5.85622 16.6747C6.57755 16.8139 7.32079 16.7853 8.02878 16.5918C5.7838 16.1383 4.16868 14.1658 4.16868 11.8751C4.16868 11.8542 4.16868 11.8341 4.16868 11.8141C4.8376 12.1867 5.58656 12.3935 6.35267 12.4164C4.23824 11.0032 3.58648 8.19036 4.86333 5.99113C7.3065 8.99744 10.9112 10.8251 14.7808 11.0185C14.393 9.34715 14.9228 7.59577 16.173 6.42087C18.1111 4.59898 21.1594 4.69236 22.9813 6.62955C24.059 6.41706 25.0919 6.02162 26.0371 5.46133C25.6779 6.57524 24.9261 7.52144 23.9218 8.12271C24.8756 8.01027 25.8075 7.7549 26.6851 7.36517C26.039 8.33329 25.2253 9.17658 24.2839 9.85789Z" fill="#1E2D48"/>
</svg>